# xmcd CD database file
#
# Track frame offsets:
#	150
#	15472
#	26051
#	36534
#	46136
#	55443
#	66139
#	78578
#	89755
#	99913
#	111398
#	123873
#	136592
#	149162
#	161101
#	176148
#	186441
#	199509
#	213235
#	223655
#
# Disc length: 3143 seconds
#
# Revision: 0
# Processed by: cddbd v1.5.2PL0 Copyright (c) Steve Scherf et al.
# Submitted via: CDex 1.70beta2
#
DISCID=2e0c4514
DTITLE=Various Country - COUNTRY MUSIC'S BEST - DISC 3
DYEAR=1900
DGENRE=Country
TTITLE0=Conway Twitty - Touch The Hand
TTITLE1=Stonewall Jackson - Slowly
TTITLE2=Don Gibson - Everything Turns Out For The Best
TTITLE3=Anita Carter - Mama Don't Cry At My Wedding
TTITLE4=Frankie Laine - Rawhide
TTITLE5=Jim Reeves - Where Does A Broken Heart Go
TTITLE6=Johnny Cash - Ring Of Fire
TTITLE7=Anita Carter And Hank Snow - Let's Pretend
TTITLE8=Wanda Jackson -  I'd Rather Had A Broken Heart
TTITLE9=Carl Smith - Loose Talk
TTITLE10=Jim Reeves - Let Me Love You Just A Little
TTITLE11=Kitty Wells - The Waltz Of The Angels
TTITLE12=Johnny Cash - Folsom Prison Blues
TTITLE13=Frankie Laine - High Noon
TTITLE14=Conway Twitty - I'd Just Love To Lay You Down
TTITLE15=Anita Carter - That's All I Want From You
TTITLE16=Connie Francis - Tennessee Waltz
TTITLE17=Jimmy Dean - Big Bad John
TTITLE18=Hank Snow - Spanish Fireball
TTITLE19=Charley Pride - More To Me
EXTD=
EXTT0=
EXTT1=
EXTT2=
EXTT3=
EXTT4=
EXTT5=
EXTT6=
EXTT7=
EXTT8=
EXTT9=
EXTT10=
EXTT11=
EXTT12=
EXTT13=
EXTT14=
EXTT15=
EXTT16=
EXTT17=
EXTT18=
EXTT19=
PLAYORDER=
